<?xml version="1.0" encoding="UTF-8"?>
<svg version="1.1" xmlns="http://www.w3.org/2000/svg" width="148" height="170">
<path d="M0 0 C4.60596486 2.37212509 8.64221107 5.32448111 12.796875 8.40380859 C16.9155183 11.38781679 21.19099188 14.1401515 25.4375 16.9375 C32.29483595 21.49761921 39.12328938 26.09525241 45.87573242 30.80957031 C49.70181889 33.46823606 53.57918347 36.01877383 57.515625 38.51171875 C58.94068359 39.42630859 58.94068359 39.42630859 60.39453125 40.359375 C62.25169044 41.54836338 64.11850897 42.72244223 65.99609375 43.87890625 C72.98729458 48.38458183 75.70732323 52.55642362 78 60.4375 C78 66.43503449 75.75804012 71.02688051 71.796875 75.47265625 C68.66677588 78.30111174 65.43100985 80.56285587 61.875 82.8125 C61.25496094 83.21919922 60.63492188 83.62589844 59.99609375 84.04492188 C55.37723214 87 55.37723214 87 52 87 C52 87.66 52 88.32 52 89 C49.42874403 90.75384086 46.84692923 92.38823282 44.1875 94 C34.32861246 100.0885214 24.6972785 106.48549874 15.07885742 112.94335938 C14.51409195 113.32201645 13.94932648 113.70067352 13.3674469 114.09080505 C11.82557994 115.12499163 10.28505774 116.1611823 8.74462891 117.19750977 C2.09846505 121.56226939 -1.92602973 123.4249458 -10 123 C-14.07944015 122.02870473 -16.37803198 120.07381531 -18.94119644 116.74853897 C-22.47544273 110.91198192 -22.28938977 103.84188872 -22.25878906 97.25097656 C-22.2622937 96.31013718 -22.26579834 95.36929779 -22.26940918 94.39994812 C-22.27815843 91.31343039 -22.27240337 88.22714475 -22.265625 85.140625 C-22.26697315 82.986877 -22.26891494 80.83312929 -22.27142334 78.67938232 C-22.27436499 74.17733854 -22.27010613 69.67537435 -22.26074219 65.17333984 C-22.24932078 59.40073474 -22.25593023 53.62831508 -22.26788712 47.85571671 C-22.27510819 43.41368202 -22.27281711 38.97169145 -22.26763153 34.52965546 C-22.26629715 32.40057096 -22.26793537 30.27148247 -22.27259064 28.14240265 C-22.27766288 25.17197517 -22.26993691 22.20185022 -22.25878906 19.23144531 C-22.26283752 18.35137314 -22.26688599 17.47130096 -22.27105713 16.56455994 C-22.26541748 15.75444962 -22.25977783 14.94433929 -22.25396729 14.10968018 C-22.25321323 13.40844654 -22.25245918 12.70721291 -22.25168228 11.98472977 C-21.95696869 9.6606614 -21.14498313 8.02806296 -20 6 C-19.34 6 -18.68 6 -18 6 C-18 5.34 -18 4.68 -18 4 C-17.34 4 -16.68 4 -16 4 C-16 3.34 -16 2.68 -16 2 C-10.77472174 -0.98587329 -5.84929958 -1.15394345 0 0 Z " fill="#6838F2" transform="translate(54,21)"/>
<path d="M0 0 C0.33 0 0.66 0 1 0 C1.00808685 0.62196259 1.01617371 1.24392517 1.02450562 1.88473511 C1.11036507 8.34085016 1.20985976 14.79665154 1.31738281 21.25244141 C1.35573647 23.66384628 1.3905779 26.07530962 1.421875 28.48681641 C1.46738703 31.94715313 1.52540404 35.40708508 1.5859375 38.8671875 C1.60326431 40.49223709 1.60326431 40.49223709 1.62094116 42.15011597 C1.64081085 43.1510025 1.66068054 44.15188904 1.68115234 45.18310547 C1.69447601 46.06690887 1.70779968 46.95071228 1.7215271 47.86129761 C1.80669004 50.2132825 1.80669004 50.2132825 4 52 C4.56520003 54.65537372 4.73788198 57.29144713 5 60 C4.01 60 3.02 60 2 60 C-0.24439213 54.92572214 -2.13178995 50.59130388 -2.11352539 44.96582031 C-2.11344986 44.18531311 -2.11337433 43.40480591 -2.11329651 42.60064697 C-2.10813522 41.76821472 -2.10297394 40.93578247 -2.09765625 40.078125 C-2.0962413 39.21813904 -2.09482635 38.35815308 -2.09336853 37.47210693 C-2.08778097 34.73136891 -2.07523075 31.99071324 -2.0625 29.25 C-2.05748339 27.3893241 -2.05292077 25.52864691 -2.04882812 23.66796875 C-2.03781561 19.11194754 -2.02055951 14.55598772 -2 10 C-1.34 10 -0.68 10 0 10 C0 6.7 0 3.4 0 0 Z " fill="#6C36E0" transform="translate(34,79)"/>
<path d="M0 0 C0.66 0.33 1.32 0.66 2 1 C2 13.54 2 26.08 2 39 C1.01 38.67 0.02 38.34 -1 38 C-1.02471455 33.0703976 -1.04286691 28.14083126 -1.05493164 23.21118164 C-1.05996113 21.53409192 -1.06678548 19.85700658 -1.07543945 18.17993164 C-1.08756559 15.769683 -1.09324215 13.35949232 -1.09765625 10.94921875 C-1.10281754 10.19912033 -1.10797882 9.44902191 -1.11329651 8.67619324 C-1.11363785 5.51048768 -1.00887343 3.02662028 0 0 Z " fill="#6338D7" transform="translate(33,36)"/>
<path d="M0 0 C2.51977372 1.06927667 3.93096416 2.16085703 6 4 C3.86675182 6.13324818 2.8992226 6.53238345 0 7 C-1 6 -1 6 -1.0625 3.4375 C-1.041875 2.633125 -1.02125 1.82875 -1 1 C-3.31 1 -5.62 1 -8 1 C-8 1.99 -8 2.98 -8 4 C-8.66 4 -9.32 4 -10 4 C-10 4.66 -10 5.32 -10 6 C-11.98 6.33 -13.96 6.66 -16 7 C-16 7.66 -16 8.32 -16 9 C-17.32 9 -18.64 9 -20 9 C-20 8.01 -20 7.02 -20 6 C-19.34 6 -18.68 6 -18 6 C-18 5.34 -18 4.68 -18 4 C-17.34 4 -16.68 4 -16 4 C-16 3.34 -16 2.68 -16 2 C-11.01828125 -0.97949686 -5.62664443 -0.64518856 0 0 Z " fill="#6036E1" transform="translate(54,21)"/>
<path d="M0 0 C3.12288864 2.55509071 4.10080633 5.1034941 5 9 C4.71550469 13.12518199 4.13784753 16.43692079 2 20 C0.96884721 16.73086376 1.0361016 14.13958652 1.4375 10.75 C1.53933594 9.85796875 1.64117187 8.9659375 1.74609375 8.046875 C1.82988281 7.37140625 1.91367188 6.6959375 2 6 C0.35 5.67 -1.3 5.34 -3 5 C-2.34 4.67 -1.68 4.34 -1 4 C-0.34786708 1.97536745 -0.34786708 1.97536745 0 0 Z " fill="#7B5DDB" transform="translate(127,72)"/>
<path d="M0 0 C4.28477792 2.30718811 7.72291137 4.32966073 11 8 C7.8125 8.75 7.8125 8.75 4 9 C1.0625 7.0625 1.0625 7.0625 -1 5 C-0.67 3.35 -0.34 1.7 0 0 Z " fill="#7248E8" transform="translate(92,47)"/>
<path d="M0 0 C5.83152493 3.11291367 11.58700334 6.19627262 17 10 C16.01 10.66 15.02 11.32 14 12 C14 11.34 14 10.68 14 10 C13.401875 9.855625 12.80375 9.71125 12.1875 9.5625 C10.43849596 9.1127561 8.71322977 8.57107659 7 8 C7 7.34 7 6.68 7 6 C4.36 5.34 1.72 4.68 -1 4 C-0.67 2.68 -0.34 1.36 0 0 Z " fill="#8969DC" transform="translate(63,28)"/>
<path d="M0 0 C1.32 0.33 2.64 0.66 4 1 C6.125 8.625 6.125 8.625 5 12 C2.69857565 10.21825212 1.19965609 8.83695835 0.51171875 5.953125 C0.27676898 3.9753389 0.13248542 1.98728128 0 0 Z " fill="#7B5AE2" transform="translate(33,128)"/>
<path d="M0 0 C2.05078125 0.03255208 4.1015625 0.06510417 6.15234375 0.09765625 C-3.56194196 8.09765625 -3.56194196 8.09765625 -6.84765625 8.09765625 C-6.84765625 7.10765625 -6.84765625 6.11765625 -6.84765625 5.09765625 C-5.85765625 5.09765625 -4.86765625 5.09765625 -3.84765625 5.09765625 C-3.63109375 4.13859375 -3.63109375 4.13859375 -3.41015625 3.16015625 C-2.58556577 0.13665781 -2.58556577 0.13665781 0 0 Z " fill="#8162E0" transform="translate(99.84765625,108.90234375)"/>
<path d="M0 0 C-2.25740623 2.33524782 -4.2805761 4.18705073 -7 6 C-9.1875 5.625 -9.1875 5.625 -11 5 C-10.625 3.0625 -10.625 3.0625 -10 1 C-6.78548731 -0.60725635 -3.56387464 -0.05748185 0 0 Z " fill="#7A57E2" transform="translate(90,119)"/>
<path d="M0 0 C12.66970387 -0.738041 12.66970387 -0.738041 18 4 C15.86675182 6.13324818 14.8992226 6.53238345 12 7 C11.67 6.67 11.34 6.34 11 6 C11 4.35 11 2.7 11 1 C7.37 1 3.74 1 0 1 C0 0.67 0 0.34 0 0 Z " fill="#8362E3" transform="translate(42,21)"/>
<path d="M0 0 C4.75 0.75 4.75 0.75 7 3 C2.25 6 2.25 6 0 6 C0 4.02 0 2.04 0 0 Z " fill="#845FE5" transform="translate(53,137)"/>
<path d="M0 0 C1.98 0 3.96 0 6 0 C3.74259377 2.33524782 1.7194239 4.18705073 -1 6 C-1.99 5.67 -2.98 5.34 -4 5 C-3.67 4.34 -3.34 3.68 -3 3 C-2.01 3 -1.02 3 0 3 C0 2.01 0 1.02 0 0 Z " fill="#8363D9" transform="translate(110,102)"/>
<path d="M0 0 C3.43595166 1.52708963 6.11912454 3.59927045 9 6 C6.69 6 4.38 6 2 6 C2 5.01 2 4.02 2 3 C1.34 3 0.68 3 0 3 C0 2.01 0 1.02 0 0 Z " fill="#8062DB" transform="translate(112,61)"/>
<path d="M0 0 C0.33 0.66 0.66 1.32 1 2 C0.01 2 -0.98 2 -2 2 C-2.33 3.98 -2.66 5.96 -3 8 C-4.32 8 -5.64 8 -7 8 C-7 7.01 -7 6.02 -7 5 C-6.34 5 -5.68 5 -5 5 C-5 4.34 -5 3.68 -5 3 C-4.34 3 -3.68 3 -3 3 C-3 2.34 -3 1.68 -3 1 C-2.01 0.67 -1.02 0.34 0 0 Z " fill="#8C71DC" transform="translate(41,22)"/>
<path d="M0 0 C6.875 3.75 6.875 3.75 8 6 C5.69 5.67 3.38 5.34 1 5 C0.67 3.35 0.34 1.7 0 0 Z " fill="#9074E0" transform="translate(92,47)"/>
<path d="M0 0 C1.65 0.33 3.3 0.66 5 1 C3.35 2.65 1.7 4.3 0 6 C-1.125 2.25 -1.125 2.25 0 0 Z " fill="#7653DE" transform="translate(72,126)"/>
<path d="M0 0 C3.96 1.98 3.96 1.98 8 4 C4.16380575 4.95904856 2.67568464 4.91892116 -1 4 C-0.67 2.68 -0.34 1.36 0 0 Z " fill="#7F60DB" transform="translate(63,28)"/>
<path d="M0 0 C0.598125 0.350625 1.19625 0.70125 1.8125 1.0625 C-0.1675 2.0525 -2.1475 3.0425 -4.1875 4.0625 C-4.5175 2.7425 -4.8475 1.4225 -5.1875 0.0625 C-2.1875 -0.9375 -2.1875 -0.9375 0 0 Z " fill="#8667E0" transform="translate(121.1875,97.9375)"/>
<path d="M0 0 C0.99 0.33 1.98 0.66 3 1 C2.1875 3.4375 2.1875 3.4375 1 6 C0.01 6.33 -0.98 6.66 -2 7 C-2 6.01 -2 5.02 -2 4 C-1.34 4 -0.68 4 0 4 C0 2.68 0 1.36 0 0 Z " fill="#8B6DE2" transform="translate(125,91)"/>
</svg>
